#!OML:ASF F:\VICON\USERDATA\INSTALL\rory3\rory3.ASF
:FULLY-SPECIFIED
:DEGREES
37
root 0.24291331509510894 17.821389978816054 23.08426049160359 -3.5253753186315286 -4.223665564290632 -7.267675229668168
lfemur -20.180329348988135 2.860908607298012 -8.89721564405312
ltibia 58.400463561467085
lfoot -6.22487199292325 0.8265248934254621
ltoes -8.665991651543209
rfemur -0.22162933541835805 6.272320717856455 33.01411595835548
rtibia 26.937626834715307
rfoot -19.533333890011683 -11.1425132026552
rtoes 3.7331593610969422
lowerback -1.0 0.9597835335213929 5.624565628651277
upperback 0.27117687328241386 2.0747904731175515 2.4291544958030844
thorax -5.668132949891683 0.9149732857867607 -0.6103463348993895
lowerneck -16.703653289261283 -2.9018235234386354 -1.1629957404166338
upperneck 21.63153134657732 -3.7088687798116107 0.3103316860363251
head 9.634494574665283 -1.8442294914684783 -0.08967112048837371
lclavicle 3.318954111518565e-16 -8.616948354486911e-16
lhumerus -30.822330311562325 3.701692351176178 81.18666715261772
lradius 19.06627856463952
lwrist 8.341346614156233
lhand -28.568315173608962 17.850884072588304
lfingers nan
lthumb -1.8062720090883482 47.99297131092907
rclavicle 4.426106183571856e-16 -7.821280148226073e-16
rhumerus -23.67768969299309 -17.902778824834808 -75.52330395692094
rradius 29.27044156971479
rwrist 1.0609891111342895
rhand -17.616702679732917 -1.0
rfingers nan
rthumb 8.801247526702207 -7.383183653111625
38
root 0.224892687481429 17.80377425704905 23.1562459739418 -3.3518253601503547 -4.058578381814913 -9.004764631792542
lfemur -25.345340156721296 2.8282725822265133 -8.404433698384093
ltibia 55.23182359694343
lfoot -6.026300534375915 0.9244457809537914
ltoes -9.122458607505148
rfemur 0.43724186116796915 6.707849623306807 34.41264762314801
rtibia 28.017002256998484
rfoot -15.736674427398253 -9.674106362938922
rtoes 2.9073246269703965
lowerback -1.0 1.347135967234609 6.946311807616626
upperback 0.25909582062108916 2.7064690136914096 2.2792737892432924
thorax -5.609873953684115 1.1836189813351057 -1.3351582744010373
lowerneck -16.612909931241038 -3.000214626739904 -1.1254807112152645
upperneck 21.414757524085413 -3.8696061956942107 0.43169896309694056
head 9.570334855087982 -1.9012592365750194 -0.09316032967033484
lclavicle 3.459111886326446e-16 -8.562218971029877e-16
lhumerus -32.72348651006181 4.701208860727782 81.48776372767584
lradius 19.666884022078285
lwrist 8.86827009214624
lhand -28.420551145840985 17.965548418946074
lfingers nan
lthumb -1.8031881249375115 47.74493755449313
rclavicle 4.702656573036516e-16 -7.736569652778189e-16
rhumerus -22.529208408986406 -15.940134023087609 -75.08018365365918
rradius 30.32755689391337
rwrist 1.64044248585276
rhand -17.680062678593583 -1.0
rfingers nan
rthumb 8.811522524185975 -7.292899508407832
39
root 0.22774762420849146 17.79729359608426 23.550271832380595 -3.4405657289797356 -3.763460667006581 -9.501067569269376
lfemur -28.500503893279504 2.3450803295979314 -9.437486531605334
ltibia 50.593170818814194
lfoot -6.256419674458138 0.9287255890467567
ltoes -8.593402426826474
rfemur 0.7371658273815154 6.61249129906636 34.581346354611696
rtibia 29.61575728904882
rfoot -10.594272761384651 -8.002828923954551
rtoes 3.0265835148585083
lowerback -1.0 1.6072224025903517 7.41834199084108
upperback 0.25175393323368656 3.0591513867003157 2.1151811234935254
thorax -5.416199050801116 1.3438484260032082 -1.765903242874467
lowerneck -16.468496301083746 -3.0955139352819256 -1.155008654010254
upperneck 21.38335992727767 -4.031098903325013 0.5320843326145231
head 9.589666464663987 -1.9540603179632097 -0.11172028364345359
lclavicle 3.5835067640945085e-16 -8.491198087667871e-16
lhumerus -34.342376929064756 5.512573321907079 81.69088176889503
lradius 20.542364544824167
lwrist 8.99804709382295
lhand -28.44101210502626 18.913822914617942
lfingers nan
lthumb -1.8634244342793251 48.67696525548084
rclavicle 4.725766491866354e-16 -7.788453387086375e-16
rhumerus -22.02427080582836 -14.50713115954877 -74.61586526181075
rradius 31.382048760151395
rwrist 2.5645219028501733
rhand -17.632156576344997 -1.0
rfingers nan
rthumb 8.777888244650208 -7.237379436969734
40
root 0.2607303592347496 17.810138450015863 24.18859849647394 -3.3949360321336064 -3.145820976143709 -9.448778026762813
lfemur -30.0933324348087 1.4640339992590954 -10.84905155234281
ltibia 44.97308384768973
lfoot -6.291586117923531 1.4649238135100475
ltoes -9.105866196929735
rfemur 1.5904013254698377 6.1690078553267895 34.32656234204303
rtibia 30.98945845210692
rfoot -5.648540661085141 -7.405639794422841
rtoes 4.248784171700916
lowerback -1.0 1.717278924260252 7.579037871136679
upperback 0.21108590113711612 3.2016582509207523 1.9580229227218369
thorax -5.1861093755684 1.4179588739412823 -2.0657765425695604
lowerneck -16.31403050870511 -3.1791283872524114 -1.2596830789171132
upperneck 21.443839812509257 -4.167357808448009 0.6913931222881285
head 9.618714629953036 -2.0094432265208693 -0.09943575081931001
lclavicle 3.6417869601932413e-16 -8.468982538383504e-16
lhumerus -35.527903564153135 6.149046000232824 81.74823946902889
lradius 21.594698964235153
lwrist 9.162644914468634
lhand -28.450958886503948 19.634335197071184
lfingers nan
lthumb -2.058630677349549 49.07832461310148
rclavicle 4.878656621014094e-16 -7.71902066379316e-16
rhumerus -21.91289529071082 -13.400880784677595 -74.33732826936125
rradius 32.29362035053173
rwrist 2.7401249556729947
rhand -17.501023773041563 -1.0
rfingers nan
rthumb 8.859078161357381 -6.698255743083035
